<svg xmlns="http://www.w3.org/2000/svg" viewBox="0 0 512 512">
    <defs>
        <linearGradient id="neonBlue" x1="0%" y1="0%" x2="100%" y2="100%">
            <stop offset="0%" stop-color="#00a4ef" />
            <stop offset="100%" stop-color="#005a9e" />
        </linearGradient>
        <filter id="glow" x="-20%" y="-20%" width="140%" height="140%">
            <feGaussianBlur stdDeviation="10" result="blur" />
            <feComposite in="SourceGraphic" in2="blur" operator="over" />
        </filter>
    </defs>
    <rect width="512" height="512" rx="100" fill="#0a0a0a" />
    
    <path d="M256 50L100 120V240C100 360 256 460 256 460C256 460 412 360 412 240V120L256 50Z" 
          fill="none" stroke="url(#neonBlue)" stroke-width="24" filter="url(#glow)" />
    
    <path d="M160 160 H240 V240 H160 Z" fill="#00a4ef" opacity="0.9" />
    <path d="M255 160 H350 V240 H255 Z" fill="#00a4ef" opacity="0.9" />
    <path d="M160 255 H240 V340 H160 Z" fill="#00a4ef" opacity="0.9" />
    <path d="M255 255 H350 V340 H255 Z" fill="#00a4ef" opacity="0.9" />
    
    <path d="M300 120 L210 270 H270 L230 400 L330 240 H260 Z" fill="#ffffff" filter="url(#glow)" />
</svg>